<svg width="120" height="40" viewBox="0 0 120 40" fill="none" xmlns="http://www.w3.org/2000/svg">
<path d="M27.8877 3H1.00049V35.9998H19.3794L27.8877 25.9998L37.4273 35.9998H45.9356L31.7551 21.7691L48.0005 3H40.0005L16.8012 29.5896H8.94976V10H21.0005L27.8877 3Z" fill="#FF6700"/>
<path d="M60.1438 16.1867C63.5412 16.1867 65.8558 15.216 65.8558 12.584C65.8558 7.6 56.2612 9.59733 56.2612 6.2C56.2612 4.8 57.6612 4.27733 60.1065 4.25867C61.9358 4.25867 63.6532 4.59467 65.1092 5.26667V3.68C63.7838 3.10133 61.9172 2.74667 60.0505 2.74667C56.7838 2.74667 54.6185 3.848 54.6185 6.27467C54.6185 11.3333 64.2318 8.90667 64.2318 12.696C64.2318 14.152 62.5892 14.656 60.1065 14.656C58.1092 14.656 56.3545 14.3013 54.6372 13.4613V15.0853C56.2238 15.7947 57.9972 16.1867 60.1438 16.1867ZM72.4202 16.1867C73.6896 16.1867 74.7909 16 75.6869 15.7387V14.3387C74.8656 14.6 73.9509 14.768 72.8122 14.768C70.8149 14.768 70.1616 14.32 70.1616 12.808V8.40267H75.4069V7.04H70.1616V4.37067L68.6496 4.66933V7.04H66.6709V8.40267H68.6309V12.9947C68.6309 15.2347 69.9749 16.1867 72.4202 16.1867ZM78.6332 12.304V7.04H77.1025V12.4533C77.1025 14.7867 78.7825 16.1867 81.5265 16.1867C83.2438 16.1867 84.8678 15.5893 85.9878 14.4693V16H87.3878V7.04H85.8385V12.976C84.7932 14.1147 83.3372 14.7867 81.6945 14.7867C79.7345 14.7867 78.6332 14.0213 78.6332 12.304ZM100.688 16V2.93333H99.1576V8.47733C98.1683 7.58133 96.6563 6.85333 94.6216 6.85333C91.3923 6.85333 89.4136 8.75733 89.4136 11.52C89.4136 14.2827 91.3923 16.1867 94.6216 16.1867C96.5069 16.1867 98.1309 15.664 99.3069 14.4693V16H100.688ZM90.9443 11.52C90.9443 9.504 92.4189 8.25333 94.8083 8.25333C96.6376 8.25333 98.2056 9.01867 99.1576 10.3067V12.8267C98.1683 14.0587 96.6189 14.7867 94.8083 14.7867C92.4189 14.7867 90.9443 13.536 90.9443 11.52ZM103.334 16H104.884V7.04H103.334V16ZM102.961 4.688C102.961 5.39733 103.484 5.77067 104.118 5.77067C104.734 5.77067 105.257 5.39733 105.257 4.688C105.257 3.97866 104.734 3.624 104.118 3.624C103.484 3.624 102.961 3.97866 102.961 4.688ZM112.626 16.1867C115.836 16.1867 118.338 14.5813 118.338 11.52C118.338 8.44 115.836 6.85333 112.626 6.85333C109.434 6.85333 106.914 8.44 106.914 11.52C106.914 14.5813 109.434 16.1867 112.626 16.1867ZM108.463 11.52C108.463 9.504 110.031 8.29067 112.626 8.29067C115.22 8.29067 116.807 9.504 116.807 11.52C116.807 13.536 115.22 14.7493 112.626 14.7493C110.031 14.7493 108.463 13.536 108.463 11.52ZM66.0612 36H68.0772L62.5332 29.224L67.6852 22.9333H65.7065L61.1332 28.5893H57.1385V22.9333H55.5332V36H57.1385V30.1013H61.1892L66.0612 36ZM70.5212 32.304V27.04H68.9905V32.4533C68.9905 34.7867 70.6705 36.1867 73.4145 36.1867C75.1319 36.1867 76.7559 35.5893 77.8759 34.4693V36H79.2759V27.04H77.7265V32.976C76.6812 34.1147 75.2252 34.7867 73.5825 34.7867C71.6225 34.7867 70.5212 34.0213 70.5212 32.304ZM81.9176 36H83.4483V30.0453C84.4003 29.0187 85.7443 28.2533 87.555 28.2533C89.6643 28.2533 90.6536 29.1307 90.6536 30.904V36H92.203V30.6987C92.203 28.2907 90.467 26.8533 87.7043 26.8533C85.9123 26.8533 84.419 27.5067 83.4483 28.3467V22.9333H81.9176V36ZM99.9563 36.1867C103.167 36.1867 105.668 34.5813 105.668 31.52C105.668 28.44 103.167 26.8533 99.9563 26.8533C96.7643 26.8533 94.2443 28.44 94.2443 31.52C94.2443 34.5813 96.7643 36.1867 99.9563 36.1867ZM95.7937 31.52C95.7937 29.504 97.3617 28.2907 99.9563 28.2907C102.551 28.2907 104.138 29.504 104.138 31.52C104.138 33.536 102.551 34.7493 99.9563 34.7493C97.3617 34.7493 95.7937 33.536 95.7937 31.52ZM116.464 30.736V36H117.995V30.5867C117.995 28.2533 116.315 26.8533 113.571 26.8533C111.853 26.8533 110.229 27.4507 109.109 28.5707V27.04H107.709V36H109.259V30.064C110.304 28.9253 111.76 28.2533 113.403 28.2533C115.363 28.2533 116.464 29.0187 116.464 30.736Z" fill="#232323"/>
</svg>
