<svg width="300" height="100" viewBox="0 0 300 100" fill="none" xmlns="http://www.w3.org/2000/svg">
<path d="M68.8849 7.5H1.66699V89.9996H47.6142L68.8849 64.9996L92.7338 89.9996H114.004L78.5534 54.4227L119.167 7.5H99.1667L41.1686 73.9739H21.5401V25H51.6669L68.8849 7.5Z" fill="#FF6700"/>
<path d="M149.525 39.4667C158.019 39.4667 163.805 37.04 163.805 30.46C163.805 18 139.819 22.9934 139.819 14.5C139.819 11 143.319 9.69337 149.432 9.6467C154.005 9.6467 158.299 10.4867 161.939 12.1667V8.20004C158.625 6.75337 153.959 5.86671 149.292 5.86671C141.125 5.86671 135.712 8.62004 135.712 14.6867C135.712 27.3333 159.745 21.2667 159.745 30.74C159.745 34.38 155.639 35.64 149.432 35.64C144.439 35.64 140.052 34.7533 135.759 32.6533V36.7133C139.725 38.4867 144.159 39.4667 149.525 39.4667ZM180.216 39.4667C183.39 39.4667 186.143 39 188.383 38.3467V34.8467C186.33 35.5 184.043 35.92 181.196 35.92C176.203 35.92 174.57 34.8 174.57 31.02V20.0067H187.683V16.6H174.57V9.9267L170.79 10.6734V16.6H165.843V20.0067H170.743V31.4867C170.743 37.0867 174.103 39.4667 180.216 39.4667ZM195.749 29.76V16.6H191.922V30.1333C191.922 35.9667 196.122 39.4667 202.982 39.4667C207.275 39.4667 211.335 37.9733 214.135 35.1733V39H217.635V16.6H213.762V31.44C211.149 34.2867 207.509 35.9667 203.402 35.9667C198.502 35.9667 195.749 34.0533 195.749 29.76ZM250.886 39V6.33337H247.06V20.1934C244.586 17.9534 240.806 16.1334 235.72 16.1334C227.646 16.1334 222.7 20.8934 222.7 27.8C222.7 34.7067 227.646 39.4667 235.72 39.4667C240.433 39.4667 244.493 38.16 247.433 35.1733V39H250.886ZM226.526 27.8C226.526 22.76 230.213 19.6334 236.186 19.6334C240.76 19.6334 244.68 21.5467 247.06 24.7667V31.0667C244.586 34.1467 240.713 35.9667 236.186 35.9667C230.213 35.9667 226.526 32.84 226.526 27.8ZM257.501 39H261.375V16.6H257.501V39ZM256.568 10.72C256.568 12.4934 257.875 13.4267 259.461 13.4267C261.001 13.4267 262.308 12.4934 262.308 10.72C262.308 8.9467 261.001 8.06004 259.461 8.06004C257.875 8.06004 256.568 8.9467 256.568 10.72ZM280.73 39.4667C288.756 39.4667 295.01 35.4533 295.01 27.8C295.01 20.1 288.756 16.1334 280.73 16.1334C272.75 16.1334 266.45 20.1 266.45 27.8C266.45 35.4533 272.75 39.4667 280.73 39.4667ZM270.323 27.8C270.323 22.76 274.243 19.7267 280.73 19.7267C287.216 19.7267 291.183 22.76 291.183 27.8C291.183 32.84 287.216 35.8733 280.73 35.8733C274.243 35.8733 270.323 32.84 270.323 27.8ZM164.319 88H169.359L155.499 71.06L168.379 55.3334H163.432L151.999 69.4734H142.012V55.3334H137.999V88H142.012V73.2534H152.139L164.319 88ZM175.469 78.76V65.6H171.642V79.1333C171.642 84.9667 175.842 88.4667 182.702 88.4667C186.995 88.4667 191.055 86.9733 193.855 84.1733V88H197.355V65.6H193.482V80.44C190.869 83.2867 187.229 84.9667 183.122 84.9667C178.222 84.9667 175.469 83.0533 175.469 78.76ZM203.96 88H207.786V73.1134C210.166 70.5467 213.526 68.6334 218.053 68.6334C223.326 68.6334 225.8 70.8267 225.8 75.26V88H229.673V74.7467C229.673 68.7267 225.333 65.1334 218.426 65.1334C213.946 65.1334 210.213 66.7667 207.786 68.8667V55.3334H203.96V88ZM249.056 88.4667C257.083 88.4667 263.336 84.4533 263.336 76.8C263.336 69.1 257.083 65.1334 249.056 65.1334C241.076 65.1334 234.776 69.1 234.776 76.8C234.776 84.4533 241.076 88.4667 249.056 88.4667ZM238.65 76.8C238.65 71.76 242.57 68.7267 249.056 68.7267C255.543 68.7267 259.51 71.76 259.51 76.8C259.51 81.84 255.543 84.8733 249.056 84.8733C242.57 84.8733 238.65 81.84 238.65 76.8ZM290.325 74.84V88H294.152V74.4667C294.152 68.6334 289.952 65.1334 283.092 65.1334C278.799 65.1334 274.739 66.6267 271.939 69.4267V65.6H268.439V88H272.312V73.16C274.925 70.3134 278.565 68.6334 282.672 68.6334C287.572 68.6334 290.325 70.5467 290.325 74.84Z" fill="white"/>
</svg>
