<svg width="18" height="18" viewBox="0 0 18 18" fill="none" xmlns="http://www.w3.org/2000/svg">
<path d="M4.28951 5.45853L4.9594 4.78864C5.01895 4.7291 5.08015 4.73075 5.143 4.7936L13.4397 13.0903C13.5026 13.1532 13.5042 13.2144 13.4447 13.2739L12.7748 13.9438C12.7152 14.0034 12.654 14.0017 12.5912 13.9389L4.29448 5.64213C4.23162 5.57928 4.22997 5.51808 4.28951 5.45853Z" fill="black"/>
<path d="M4.44535 13.2519L12.7333 4.96397C12.7991 4.89819 12.8617 4.89508 12.9213 4.95462L13.5912 5.62451C13.6507 5.68406 13.6476 5.74672 13.5818 5.8125L5.29387 14.1004C5.2281 14.1662 5.16543 14.1693 5.10589 14.1098L4.436 13.4399C4.37645 13.3804 4.37957 13.3177 4.44535 13.2519Z" fill="black"/>
</svg>
