<svg width="26" height="26" viewBox="0 0 26 26" fill="none" xmlns="http://www.w3.org/2000/svg">
<path d="M24.7929 3.39461C25.1834 3.00408 25.1834 2.37092 24.7929 1.98039L24.0196 1.20711C23.6291 0.816583 22.9959 0.816582 22.6054 1.20711L13.7071 10.1054C13.3166 10.4959 12.6834 10.4959 12.2929 10.1054L3.39461 1.20711C3.00408 0.816583 2.37092 0.816582 1.98039 1.20711L1.20711 1.98039C0.816583 2.37092 0.816582 3.00408 1.20711 3.39461L10.1054 12.2929C10.4959 12.6834 10.4959 13.3166 10.1054 13.7071L1.20711 22.6054C0.816583 22.9959 0.816582 23.6291 1.20711 24.0196L1.98039 24.7929C2.37092 25.1834 3.00408 25.1834 3.39461 24.7929L12.2929 15.8946C12.6834 15.5041 13.3166 15.5041 13.7071 15.8946L22.6054 24.7929C22.9959 25.1834 23.6291 25.1834 24.0196 24.7929L24.7929 24.0196C25.1834 23.6291 25.1834 22.9959 24.7929 22.6054L15.8946 13.7071C15.5041 13.3166 15.5041 12.6834 15.8946 12.2929L24.7929 3.39461Z" fill="white"/>
</svg>
